<?xml version="1.0" encoding="UTF-8" standalone="no"?>
<svg
   version="1.1"
   viewBox="0.0 0.0 332.5196850393701 452.5196850393701"
   fill="none"
   stroke="none"
   stroke-linecap="square"
   stroke-miterlimit="10"
   id="svg33"
   sodipodi:docname="favicon.svg"
   inkscape:version="1.2.2 (b0a8486541, 2022-12-01)"
   xmlns:inkscape="http://www.inkscape.org/namespaces/inkscape"
   xmlns:sodipodi="http://sodipodi.sourceforge.net/DTD/sodipodi-0.dtd"
   xmlns="http://www.w3.org/2000/svg"
   xmlns:svg="http://www.w3.org/2000/svg">
  <defs
     id="defs37" />
  <sodipodi:namedview
     id="namedview35"
     pagecolor="#ffffff"
     bordercolor="#000000"
     borderopacity="0.25"
     inkscape:showpageshadow="2"
     inkscape:pageopacity="0.0"
     inkscape:pagecheckerboard="0"
     inkscape:deskcolor="#d1d1d1"
     showgrid="false"
     inkscape:zoom="1.9954933"
     inkscape:cx="99.47415"
     inkscape:cy="213.73161"
     inkscape:window-width="1910"
     inkscape:window-height="1038"
     inkscape:window-x="1925"
     inkscape:window-y="37"
     inkscape:window-maximized="1"
     inkscape:current-layer="g31" />
  <clipPath
     id="p.0">
    <path
       d="m0 0l332.51968 0l0 452.51968l-332.51968 0l0 -452.51968z"
       clip-rule="nonzero"
       id="path2" />
  </clipPath>
  <g
     clip-path="url(#p.0)"
     id="g31">
    <path
       fill="#000000"
       fill-opacity="0.0"
       d="m0 0l332.51968 0l0 452.51968l-332.51968 0z"
       fill-rule="evenodd"
       id="path5" />
    <path
       fill="#cdd6f4"
       d="m319.23608 56.952755l0 0c2.8702087 0 5.196991 2.3267784 5.196991 5.1970024l0 50.078438c0 1.378334 -0.5475464 2.7002106 -1.5221558 3.6748352c-0.9746399 0.97462463 -2.2965088 1.5221634 -3.6748352 1.5221634l-305.95245 0c-2.870225 0 -5.1970015 -2.3267746 -5.1970015 -5.1969986l0 -50.078438c0 -2.870224 2.3267765 -5.1970024 5.1970015 -5.1970024z"
       fill-rule="evenodd"
       id="path7"
       style="fill:#4c566a;fill-opacity:1;stroke:#8fbcbb;stroke-opacity:1" />
    <path
       stroke="#1e1e2e"
       stroke-width="4.0"
       stroke-linejoin="round"
       stroke-linecap="butt"
       d="m319.23608 56.952755l0 0c2.8702087 0 5.196991 2.3267784 5.196991 5.1970024l0 50.078438c0 1.378334 -0.5475464 2.7002106 -1.5221558 3.6748352c-0.9746399 0.97462463 -2.2965088 1.5221634 -3.6748352 1.5221634l-305.95245 0c-2.870225 0 -5.1970015 -2.3267746 -5.1970015 -5.1969986l0 -50.078438c0 -2.870224 2.3267765 -5.1970024 5.1970015 -5.1970024z"
       fill-rule="evenodd"
       id="path9"
       style="stroke:#8fbcbb;stroke-opacity:1" />
    <path
       fill="#cdd6f4"
       d="m319.23608 149.66667l0 0c2.8702087 0 5.196991 2.326767 5.196991 5.196991l0 50.078445c0 1.3783264 -0.5475464 2.7002106 -1.5221558 3.6748352c-0.9746399 0.97462463 -2.2965088 1.522171 -3.6748352 1.522171l-305.95245 0c-2.870225 0 -5.1970015 -2.3267822 -5.1970015 -5.197006l0 -50.078445c0 -2.870224 2.3267765 -5.196991 5.1970015 -5.196991z"
       fill-rule="evenodd"
       id="path11" />
    <path
       stroke="#1e1e2e"
       stroke-width="4.0"
       stroke-linejoin="round"
       stroke-linecap="butt"
       d="m319.23608 149.66667l0 0c2.8702087 0 5.196991 2.326767 5.196991 5.196991l0 50.078445c0 1.3783264 -0.5475464 2.7002106 -1.5221558 3.6748352c-0.9746399 0.97462463 -2.2965088 1.522171 -3.6748352 1.522171l-305.95245 0c-2.870225 0 -5.1970015 -2.3267822 -5.1970015 -5.197006l0 -50.078445c0 -2.870224 2.3267765 -5.196991 5.1970015 -5.196991z"
       fill-rule="evenodd"
       id="path13"
       style="fill:#4c566a;fill-opacity:1;stroke:#8fbcbb;stroke-opacity:1" />
    <path
       fill="#cdd6f4"
       d="m319.23608 242.38058l0 0c2.8702087 0 5.196991 2.326767 5.196991 5.196991l0 50.07843c0 1.3783264 -0.5475464 2.7002258 -1.5221558 3.6748352c-0.9746399 0.9746399 -2.2965088 1.5221863 -3.6748352 1.5221863l-305.95245 0c-2.870225 0 -5.1970015 -2.3267822 -5.1970015 -5.1970215l0 -50.07843c0 -2.870224 2.3267765 -5.196991 5.1970015 -5.196991z"
       fill-rule="evenodd"
       id="path15"
       style="fill:#4c566a;fill-opacity:1;stroke:#8fbcbb;stroke-opacity:1" />
    <path
       stroke="#1e1e2e"
       stroke-width="4.0"
       stroke-linejoin="round"
       stroke-linecap="butt"
       d="m319.23608 242.38058l0 0c2.8702087 0 5.196991 2.326767 5.196991 5.196991l0 50.07843c0 1.3783264 -0.5475464 2.7002258 -1.5221558 3.6748352c-0.9746399 0.9746399 -2.2965088 1.5221863 -3.6748352 1.5221863l-305.95245 0c-2.870225 0 -5.1970015 -2.3267822 -5.1970015 -5.1970215l0 -50.07843c0 -2.870224 2.3267765 -5.196991 5.1970015 -5.196991z"
       fill-rule="evenodd"
       id="path17"
       style="stroke:#8fbcbb;stroke-opacity:1" />
    <path
       fill="#cdd6f4"
       d="m319.23608 335.09448l0 0c2.8702087 0 5.196991 2.3267822 5.196991 5.1970215l0 50.07843c0 1.3783264 -0.5475464 2.7001953 -1.5221558 3.6748352c-0.9746399 0.9746094 -2.2965088 1.5221558 -3.6748352 1.5221558l-305.95245 0c-2.870225 0 -5.1970015 -2.3267822 -5.1970015 -5.196991l0 -50.07843c0 -2.8702393 2.3267765 -5.1970215 5.1970015 -5.1970215z"
       fill-rule="evenodd"
       id="path19"
       style="fill:#4c566a;fill-opacity:1;stroke:#8fbcbb;stroke-opacity:1" />
    <path
       stroke="#1e1e2e"
       stroke-width="4.0"
       stroke-linejoin="round"
       stroke-linecap="butt"
       d="m319.23608 335.09448l0 0c2.8702087 0 5.196991 2.3267822 5.196991 5.1970215l0 50.07843c0 1.3783264 -0.5475464 2.7001953 -1.5221558 3.6748352c-0.9746399 0.9746094 -2.2965088 1.5221558 -3.6748352 1.5221558l-305.95245 0c-2.870225 0 -5.1970015 -2.3267822 -5.1970015 -5.196991l0 -50.07843c0 -2.8702393 2.3267765 -5.1970215 5.1970015 -5.1970215z"
       fill-rule="evenodd"
       id="path21"
       style="stroke:#8fbcbb;stroke-opacity:1" />
    <path
       fill="#cdd6f4"
       d="m70.732285 22.8366l0 0c0 -9.068116 7.351158 -16.419277 16.419273 -16.419277l158.21655 0c4.3546753 0 8.530975 1.7298837 11.610184 4.809095c3.0792236 3.0792122 4.8091125 7.25552 4.8091125 11.610182l0 406.84647c0 9.068115 -7.351181 16.419281 -16.419296 16.419281l-158.21655 0c-9.068115 0 -16.419273 -7.351166 -16.419273 -16.419281z"
       fill-rule="evenodd"
       id="path23"
       style="fill:#4c566a;fill-opacity:1;stroke:#8fbcbb;stroke-opacity:1" />
    <path
       stroke="#1e1e2e"
       stroke-width="4.0"
       stroke-linejoin="round"
       stroke-linecap="butt"
       d="m70.732285 22.8366l0 0c0 -9.068116 7.351158 -16.419277 16.419273 -16.419277l158.21655 0c4.3546753 0 8.530975 1.7298837 11.610184 4.809095c3.0792236 3.0792122 4.8091125 7.25552 4.8091125 11.610182l0 406.84647c0 9.068115 -7.351181 16.419281 -16.419296 16.419281l-158.21655 0c-9.068115 0 -16.419273 -7.351166 -16.419273 -16.419281z"
       fill-rule="evenodd"
       id="path25"
       style="stroke:#8fbcbb;stroke-opacity:1" />
    <path
       fill="#000000"
       fill-opacity="0.0"
       d="m70.732285 97.83465l205.6378 0l0 192.85037l-205.6378 0z"
       fill-rule="evenodd"
       id="path27" />
    <path
       fill="#1e1e2e"
       d="m97.187904 318.0684q-4.5 0 -7.90625 -0.640625q-3.421875 -0.625 -5.84375 -1.703125l0 -13.015625q2.875 0.890625 6.203125 1.375q3.3125 0.5 7.1875 0.5q5.03125 0 9.25 -1.984375q4.21875 -1.96875 6.734375 -6.734375q2.515625 -4.75 2.515625 -13.109375l0 -130.64062l15.374992 0l0 129.46875q0 12.3125 -4.0937424 20.390625q-4.09375 8.09375 -11.59375 12.09375q-7.5 4.0 -17.828125 4.0zm108.710945 -34.59375l-15.35939 0l0 -117.875l-41.328125 0l0 -13.484375l97.82814 0l0 13.484375l-41.140625 0l0 117.875z"
       fill-rule="nonzero"
       id="path29"
       style="stroke:#8fbcbb;stroke-opacity:1;fill:#8fbcbb;fill-opacity:1" />
  </g>
</svg>
